<?xml version="1.0" encoding="UTF-8"?>
<!DOCTYPE svg PUBLIC "-//W3C//DTD SVG 1.1//EN" "http://www.w3.org/Graphics/SVG/1.1/DTD/svg11.dtd">
<svg xmlns="http://www.w3.org/2000/svg" version="1.1" width="120px" height="90px" style="shape-rendering:geometricPrecision; text-rendering:geometricPrecision; image-rendering:optimizeQuality; fill-rule:evenodd; clip-rule:evenodd" xmlns:xlink="http://www.w3.org/1999/xlink">
<g><path style="opacity:0.975" fill="#f8f8f7" d="M -0.5,27.5 C 39.5,27.5 79.5,27.5 119.5,27.5C 119.5,38.5 119.5,49.5 119.5,60.5C 79.5,60.5 39.5,60.5 -0.5,60.5C -0.5,49.5 -0.5,38.5 -0.5,27.5 Z"/></g>
<g><path style="opacity:1" fill="#bcbcdb" d="M 2.5,32.5 C 15.1667,31.1667 27.8333,31.1667 40.5,32.5C 40.5,33.8333 39.8333,34.5 38.5,34.5C 26.8799,32.5209 14.8799,31.8542 2.5,32.5 Z"/></g>
<g><path style="opacity:1" fill="#878788" d="M 52.5,32.5 C 49.9208,32.9167 47.7542,32.25 46,30.5C 43.347,32.155 41.0136,34.155 39,36.5C 38.9131,40.015 39.7465,43.3483 41.5,46.5C 39.9263,45.0158 38.593,43.3492 37.5,41.5C 37.1667,41.5 36.8333,41.5 36.5,41.5C 36.3379,39.4727 36.5045,37.4727 37,35.5C 37.3826,34.944 37.8826,34.6107 38.5,34.5C 39.8333,34.5 40.5,33.8333 40.5,32.5C 42.4021,31.6321 44.2355,30.6321 46,29.5C 47.8596,31.9154 49.5263,31.9154 51,29.5C 51.5133,30.5266 52.0133,31.5266 52.5,32.5 Z"/></g>
<g><path style="opacity:1" fill="#e0adab" d="M 117.5,32.5 C 117.167,32.5 116.833,32.5 116.5,32.5C 96.1557,32.167 75.8224,32.5004 55.5,33.5C 55.8555,34.5223 56.5222,35.189 57.5,35.5C 57.1667,36.1667 56.8333,36.8333 56.5,37.5C 55.8333,36.8333 55.1667,36.1667 54.5,35.5C 54.5,34.8333 54.5,34.1667 54.5,33.5C 64.6447,32.1679 75.1447,31.5013 86,31.5C 96.6721,31.5002 107.172,31.8335 117.5,32.5 Z"/></g>
<g><path style="opacity:1" fill="#b51713" d="M 116.5,32.5 C 116.5,36.1667 116.5,39.8333 116.5,43.5C 114.5,43.5 112.5,43.5 110.5,43.5C 110.806,40.6146 110.473,37.9479 109.5,35.5C 108.432,34.5655 107.099,34.2322 105.5,34.5C 105.817,38.7016 105.483,42.7016 104.5,46.5C 103.297,42.8899 102.297,39.2232 101.5,35.5C 99.5328,35.2606 97.6995,35.5939 96,36.5C 95.1188,39.93 93.9521,43.2633 92.5,46.5C 93.1667,46.8333 93.8333,47.1667 94.5,47.5C 95.8333,46.8333 97.1667,46.1667 98.5,45.5C 100.334,46.7545 102.334,47.4211 104.5,47.5C 105.167,47.5 105.833,47.5 106.5,47.5C 109.167,47.5 111.833,47.5 114.5,47.5C 116.203,46.3398 116.869,47.0065 116.5,49.5C 102.127,50.1491 88.1267,49.4824 74.5,47.5C 75.5,47.5 76.5,47.5 77.5,47.5C 78.4849,43.3656 78.8182,39.0323 78.5,34.5C 76.901,34.2322 75.5676,34.5655 74.5,35.5C 74.5,36.8333 74.5,38.1667 74.5,39.5C 73.1667,39.5 71.8333,39.5 70.5,39.5C 70.5,38.1667 70.5,36.8333 70.5,35.5C 69.5,35.5 68.5,35.5 67.5,35.5C 66.8333,36.1667 66.1667,36.8333 65.5,37.5C 63.2849,34.6599 60.6182,33.9932 57.5,35.5C 56.5222,35.189 55.8555,34.5223 55.5,33.5C 75.8224,32.5004 96.1557,32.167 116.5,32.5 Z"/></g>
<g><path style="opacity:1" fill="#434445" d="M 52.5,32.5 C 53.1667,32.8333 53.8333,33.1667 54.5,33.5C 54.5,34.1667 54.5,34.8333 54.5,35.5C 52.9519,35.1788 52.2852,34.1788 52.5,32.5 Z"/></g>
<g><path style="opacity:1" fill="#8c8dc0" d="M 30.5,35.5 C 31.5676,34.5655 32.901,34.2322 34.5,34.5C 34.1826,37.5719 34.5159,40.5719 35.5,43.5C 36.2975,43.0431 36.6309,42.3764 36.5,41.5C 36.8333,41.5 37.1667,41.5 37.5,41.5C 37.5,42.5 37.5,43.5 37.5,44.5C 36.1667,44.5 34.8333,44.5 33.5,44.5C 33.5,41.5 33.5,38.5 33.5,35.5C 32.5,35.5 31.5,35.5 30.5,35.5 Z"/></g>
<g><path style="opacity:1" fill="#e0dfdf" d="M 52.5,32.5 C 52.2852,34.1788 52.9519,35.1788 54.5,35.5C 54.5,36.8333 54.5,38.1667 54.5,39.5C 50.4159,38.9453 49.7492,39.9453 52.5,42.5C 52.3764,43.1067 52.0431,43.44 51.5,43.5C 50.1779,43.33 49.0113,43.6634 48,44.5C 47.7216,43.5842 47.2216,42.9175 46.5,42.5C 46.3505,41.448 46.5172,40.448 47,39.5C 48.586,38.624 50.086,37.624 51.5,36.5C 50.8333,36.1667 50.1667,35.8333 49.5,35.5C 47.5852,37.4455 44.9185,39.2788 41.5,41C 42.7375,41.2321 43.7375,41.7321 44.5,42.5C 46.2828,46.309 45.2828,47.6423 41.5,46.5C 39.7465,43.3483 38.9131,40.015 39,36.5C 41.0136,34.155 43.347,32.155 46,30.5C 47.7542,32.25 49.9208,32.9167 52.5,32.5 Z"/></g>
<g><path style="opacity:1" fill="#be5657" d="M 67.5,35.5 C 67.5,39.5 67.5,43.5 67.5,47.5C 66.8333,46.8333 66.1667,46.1667 65.5,45.5C 65.5,44.5 65.5,43.5 65.5,42.5C 66.8333,41.5 66.8333,40.5 65.5,39.5C 65.5,38.8333 65.5,38.1667 65.5,37.5C 66.1667,36.8333 66.8333,36.1667 67.5,35.5 Z"/></g>
<g><path style="opacity:1" fill="#e4aaaa" d="M 74.5,35.5 C 75.5676,34.5655 76.901,34.2322 78.5,34.5C 78.8182,39.0323 78.4849,43.3656 77.5,47.5C 77.5,43.5 77.5,39.5 77.5,35.5C 76.5,35.5 75.5,35.5 74.5,35.5 Z"/></g>
<g><path style="opacity:1" fill="#e9e8f0" d="M 15.5,41.5 C 15.5,42.8333 15.5,44.1667 15.5,45.5C 15.0825,46.2216 14.4158,46.7216 13.5,47C 10.854,47.4974 8.1873,47.6641 5.5,47.5C 5.5,43.1667 5.5,38.8333 5.5,34.5C 8.1873,34.3359 10.854,34.5026 13.5,35C 14.5742,35.7387 15.2409,36.7387 15.5,38C 14.4848,39.3731 14.4848,40.5398 15.5,41.5 Z"/></g>
<g><path style="opacity:1" fill="#f5eae9" d="M 104.5,46.5 C 104.5,46.8333 104.5,47.1667 104.5,47.5C 102.334,47.4211 100.334,46.7545 98.5,45.5C 97.1667,46.1667 95.8333,46.8333 94.5,47.5C 93.8333,47.1667 93.1667,46.8333 92.5,46.5C 93.9521,43.2633 95.1188,39.93 96,36.5C 97.6995,35.5939 99.5328,35.2606 101.5,35.5C 102.297,39.2232 103.297,42.8899 104.5,46.5 Z"/></g>
<g><path style="opacity:1" fill="#2b2b2b" d="M 46.5,42.5 C 46.0623,43.5063 45.3957,43.5063 44.5,42.5C 43.7375,41.7321 42.7375,41.2321 41.5,41C 44.9185,39.2788 47.5852,37.4455 49.5,35.5C 50.1667,35.8333 50.8333,36.1667 51.5,36.5C 50.086,37.624 48.586,38.624 47,39.5C 46.5172,40.448 46.3505,41.448 46.5,42.5 Z"/></g>
<g><path style="opacity:1" fill="#d49d98" d="M 109.5,35.5 C 108.5,35.5 107.5,35.5 106.5,35.5C 106.5,39.5 106.5,43.5 106.5,47.5C 105.833,47.5 105.167,47.5 104.5,47.5C 104.5,47.1667 104.5,46.8333 104.5,46.5C 105.483,42.7016 105.817,38.7016 105.5,34.5C 107.099,34.2322 108.432,34.5655 109.5,35.5 Z"/></g>
<g><path style="opacity:1" fill="#f4eae9" d="M 83.5,35.5 C 85.1439,35.2865 86.6439,35.6198 88,36.5C 89.6738,40.0207 90.8404,43.6873 91.5,47.5C 89.3337,47.4211 87.3337,46.7545 85.5,45.5C 83.6746,46.6511 81.6746,47.3178 79.5,47.5C 80.2382,43.2854 81.5715,39.2854 83.5,35.5 Z"/></g>
<g><path style="opacity:1" fill="#b31f1b" d="M 65.5,39.5 C 66.8333,40.5 66.8333,41.5 65.5,42.5C 63.1667,43.1667 60.8333,43.8333 58.5,44.5C 58.5,42.5 58.5,40.5 58.5,38.5C 60.861,38.6741 63.1944,39.0074 65.5,39.5 Z"/></g>
<g><path style="opacity:1" fill="#f8f6f5" d="M 67.5,35.5 C 68.5,35.5 69.5,35.5 70.5,35.5C 70.5,36.8333 70.5,38.1667 70.5,39.5C 71.8333,39.5 73.1667,39.5 74.5,39.5C 74.5,38.1667 74.5,36.8333 74.5,35.5C 75.5,35.5 76.5,35.5 77.5,35.5C 77.5,39.5 77.5,43.5 77.5,47.5C 76.5,47.5 75.5,47.5 74.5,47.5C 74.5,45.8333 74.5,44.1667 74.5,42.5C 73.1667,42.5 71.8333,42.5 70.5,42.5C 70.5,44.1667 70.5,45.8333 70.5,47.5C 69.5,47.5 68.5,47.5 67.5,47.5C 67.5,43.5 67.5,39.5 67.5,35.5 Z"/></g>
<g><path style="opacity:1" fill="#c56a6c" d="M 84.5,40.5 C 86.4646,40.9483 86.7979,41.9483 85.5,43.5C 84.6143,42.675 84.281,41.675 84.5,40.5 Z"/></g>
<g><path style="opacity:1" fill="#bf6468" d="M 97.5,40.5 C 99.4646,40.9483 99.7979,41.9483 98.5,43.5C 97.6143,42.675 97.281,41.675 97.5,40.5 Z"/></g>
<g><path style="opacity:1" fill="#a5a5cd" d="M 17.5,38.5 C 17.5,40.5 17.5,42.5 17.5,44.5C 16.8333,44.8333 16.1667,45.1667 15.5,45.5C 15.5,44.1667 15.5,42.8333 15.5,41.5C 16.1667,40.5 16.8333,39.5 17.5,38.5 Z"/></g>
<g><path style="opacity:1" fill="#6160ae" d="M 8.5,42.5 C 9.97782,42.238 11.3112,42.5713 12.5,43.5C 11.8333,43.8333 11.1667,44.1667 10.5,44.5C 9.28665,44.2528 8.61998,43.5862 8.5,42.5 Z"/></g>
<g><path style="opacity:1" fill="#f2f1f4" d="M 30.5,35.5 C 31.5,35.5 32.5,35.5 33.5,35.5C 33.5,38.5 33.5,41.5 33.5,44.5C 34.8333,44.5 36.1667,44.5 37.5,44.5C 37.5,43.5 37.5,42.5 37.5,41.5C 38.593,43.3492 39.9263,45.0158 41.5,46.5C 41.5,47.1667 41.5,47.8333 41.5,48.5C 41.1667,48.5 40.8333,48.5 40.5,48.5C 37.3752,47.5206 34.0419,47.1872 30.5,47.5C 30.5,43.5 30.5,39.5 30.5,35.5 Z"/></g>
<g><path style="opacity:1" fill="#89898a" d="M 44.5,42.5 C 45.3957,43.5063 46.0623,43.5063 46.5,42.5C 47.2216,42.9175 47.7216,43.5842 48,44.5C 49.0113,43.6634 50.1779,43.33 51.5,43.5C 50.3065,44.2719 49.3065,45.2719 48.5,46.5C 47.8826,46.3893 47.3826,46.056 47,45.5C 45.3896,47.5968 44.2229,49.9302 43.5,52.5C 42.8281,51.0508 42.1614,49.7175 41.5,48.5C 41.5,47.8333 41.5,47.1667 41.5,46.5C 45.2828,47.6423 46.2828,46.309 44.5,42.5 Z"/></g>
<g><path style="opacity:1" fill="#4a494a" d="M 54.5,35.5 C 55.1667,36.1667 55.8333,36.8333 56.5,37.5C 55.2271,39.7128 54.2271,42.0462 53.5,44.5C 53.5,46.5 53.5,48.5 53.5,50.5C 53.44,51.0431 53.1067,51.3764 52.5,51.5C 51.8658,49.2276 50.5324,47.5609 48.5,46.5C 49.3065,45.2719 50.3065,44.2719 51.5,43.5C 52.0431,43.44 52.3764,43.1067 52.5,42.5C 49.7492,39.9453 50.4159,38.9453 54.5,39.5C 54.5,38.1667 54.5,36.8333 54.5,35.5 Z"/></g>
<g><path style="opacity:1" fill="#f9f6f4" d="M 109.5,35.5 C 109.5,38.5 109.5,41.5 109.5,44.5C 111.167,44.5 112.833,44.5 114.5,44.5C 114.5,45.5 114.5,46.5 114.5,47.5C 111.833,47.5 109.167,47.5 106.5,47.5C 106.5,43.5 106.5,39.5 106.5,35.5C 107.5,35.5 108.5,35.5 109.5,35.5 Z"/></g>
<g><path style="opacity:1" fill="#ececf2" d="M 28.5,37.5 C 28.5,39.8333 28.5,42.1667 28.5,44.5C 26.1421,47.2364 23.1421,48.0698 19.5,47C 18.6195,46.2917 17.9528,45.4584 17.5,44.5C 17.5,42.5 17.5,40.5 17.5,38.5C 18.2415,35.8619 20.0749,34.5286 23,34.5C 25.1923,34.8627 27.0256,35.8627 28.5,37.5 Z"/></g>
<g><path style="opacity:1" fill="#4843ad" d="M 20.5,38.5 C 25.1585,38.0146 26.4919,39.848 24.5,44C 23.2161,44.6838 22.0495,44.5171 21,43.5C 20.5065,41.8659 20.3398,40.1992 20.5,38.5 Z"/></g>
<g><path style="opacity:1" fill="#6464b6" d="M 30.5,35.5 C 30.5,39.5 30.5,43.5 30.5,47.5C 29.8333,46.5 29.1667,45.5 28.5,44.5C 28.5,42.1667 28.5,39.8333 28.5,37.5C 29.1667,36.8333 29.8333,36.1667 30.5,35.5 Z"/></g>
<g><path style="opacity:1" fill="#f2e5e4" d="M 65.5,37.5 C 65.5,38.1667 65.5,38.8333 65.5,39.5C 63.1944,39.0074 60.861,38.6741 58.5,38.5C 58.5,40.5 58.5,42.5 58.5,44.5C 60.8333,43.8333 63.1667,43.1667 65.5,42.5C 65.5,43.5 65.5,44.5 65.5,45.5C 62.1667,48.1667 58.8333,48.1667 55.5,45.5C 55.1583,44.6618 54.4916,44.3284 53.5,44.5C 54.2271,42.0462 55.2271,39.7128 56.5,37.5C 56.8333,36.8333 57.1667,36.1667 57.5,35.5C 60.6182,33.9932 63.2849,34.6599 65.5,37.5 Z"/></g>
<g><path style="opacity:1" fill="#3c3bad" d="M 2.5,32.5 C 14.8799,31.8542 26.8799,32.5209 38.5,34.5C 37.8826,34.6107 37.3826,34.944 37,35.5C 36.5045,37.4727 36.3379,39.4727 36.5,41.5C 36.6309,42.3764 36.2975,43.0431 35.5,43.5C 34.5159,40.5719 34.1826,37.5719 34.5,34.5C 32.901,34.2322 31.5676,34.5655 30.5,35.5C 29.8333,36.1667 29.1667,36.8333 28.5,37.5C 27.0256,35.8627 25.1923,34.8627 23,34.5C 20.0749,34.5286 18.2415,35.8619 17.5,38.5C 16.8333,39.5 16.1667,40.5 15.5,41.5C 14.4848,40.5398 14.4848,39.3731 15.5,38C 15.2409,36.7387 14.5742,35.7387 13.5,35C 10.854,34.5026 8.1873,34.3359 5.5,34.5C 5.5,38.8333 5.5,43.1667 5.5,47.5C 8.1873,47.6641 10.854,47.4974 13.5,47C 14.4158,46.7216 15.0825,46.2216 15.5,45.5C 16.1667,45.1667 16.8333,44.8333 17.5,44.5C 17.9528,45.4584 18.6195,46.2917 19.5,47C 23.1421,48.0698 26.1421,47.2364 28.5,44.5C 29.1667,45.5 29.8333,46.5 30.5,47.5C 34.0419,47.1872 37.3752,47.5206 40.5,48.5C 28.011,49.4954 15.3443,49.8287 2.5,49.5C 2.5,43.8333 2.5,38.1667 2.5,32.5 Z"/></g>
<g><path style="opacity:1" fill="#5959a0" d="M 40.5,48.5 C 40.8333,48.5 41.1667,48.5 41.5,48.5C 35.3693,49.83 28.8693,50.4966 22,50.5C 15.3245,50.4996 8.82453,50.1663 2.5,49.5C 15.3443,49.8287 28.011,49.4954 40.5,48.5 Z"/></g>
<g><path style="opacity:1" fill="#a93131" d="M 116.5,32.5 C 116.833,32.5 117.167,32.5 117.5,32.5C 117.5,38.5 117.5,44.5 117.5,50.5C 96.1667,50.5 74.8333,50.5 53.5,50.5C 53.5,48.5 53.5,46.5 53.5,44.5C 54.4916,44.3284 55.1583,44.6618 55.5,45.5C 54.5655,46.5676 54.2322,47.901 54.5,49.5C 60.1764,49.6661 65.8431,49.4994 71.5,49C 73.5598,47.5074 73.8932,45.6741 72.5,43.5C 71.8281,44.9492 71.1614,46.2825 70.5,47.5C 70.5,45.8333 70.5,44.1667 70.5,42.5C 71.8333,42.5 73.1667,42.5 74.5,42.5C 74.5,44.1667 74.5,45.8333 74.5,47.5C 88.1267,49.4824 102.127,50.1491 116.5,49.5C 116.869,47.0065 116.203,46.3398 114.5,47.5C 114.5,46.5 114.5,45.5 114.5,44.5C 112.833,44.5 111.167,44.5 109.5,44.5C 109.5,41.5 109.5,38.5 109.5,35.5C 110.473,37.9479 110.806,40.6146 110.5,43.5C 112.5,43.5 114.5,43.5 116.5,43.5C 116.5,39.8333 116.5,36.1667 116.5,32.5 Z"/></g>
<g><path style="opacity:1" fill="#b61412" d="M 55.5,45.5 C 58.8333,48.1667 62.1667,48.1667 65.5,45.5C 66.1667,46.1667 66.8333,46.8333 67.5,47.5C 68.5,47.5 69.5,47.5 70.5,47.5C 71.1614,46.2825 71.8281,44.9492 72.5,43.5C 73.8932,45.6741 73.5598,47.5074 71.5,49C 65.8431,49.4994 60.1764,49.6661 54.5,49.5C 54.2322,47.901 54.5655,46.5676 55.5,45.5 Z"/></g>
<g><path style="opacity:1" fill="#8e8cbd" d="M 88.5,53.5 C 90.8568,53.3367 93.1902,53.5034 95.5,54C 93.0087,54.6259 93.0087,55.4593 95.5,56.5C 93.2966,56.5866 91.1299,56.5866 89,56.5C 88.5172,55.552 88.3505,54.552 88.5,53.5 Z"/></g>
<g><path style="opacity:1" fill="#a19fc1" d="M 96.5,53.5 C 99.0728,53.1485 101.406,53.6485 103.5,55C 101.697,57.1025 99.3641,57.9358 96.5,57.5C 96.5,56.1667 96.5,54.8333 96.5,53.5 Z"/></g>
<g><path style="opacity:1" fill="#5e5e5f" d="M 113.5,54.5 C 111.906,54.9195 110.406,55.5862 109,56.5C 107.765,55.3845 106.598,55.3845 105.5,56.5C 104.417,55.635 104.251,54.635 105,53.5C 107.827,53.327 110.661,53.6603 113.5,54.5 Z"/></g>
<g><path style="opacity:1" fill="#3c3c3c" d="M 113.5,54.5 C 114.982,54.1236 116.315,54.1236 117.5,54.5C 117.192,55.3081 116.692,55.9747 116,56.5C 115.333,55.1667 114.667,55.1667 114,56.5C 113.536,55.9056 113.369,55.2389 113.5,54.5 Z"/></g>
<g><path style="opacity:1" fill="#939392" d="M 63.5,53.5 C 66.5,54.8333 69.5,54.8333 72.5,53.5C 72.5,54.8333 72.5,56.1667 72.5,57.5C 70.549,57.7733 69.049,57.1066 68,55.5C 67.6667,55.8333 67.3333,56.1667 67,56.5C 65.4842,53.9485 64.6509,54.2819 64.5,57.5C 43.8226,57.833 23.1559,57.4997 2.5,56.5C 23.1832,56.1604 43.5165,55.1604 63.5,53.5 Z"/></g>
<g><path style="opacity:1" fill="#9c9ac1" d="M 74.5,53.5 C 76.1238,53.3601 77.2904,54.0267 78,55.5C 79,52.8333 80,52.8333 81,55.5C 81.3333,54.8333 81.6667,54.1667 82,53.5C 83.3799,56.0578 84.8799,56.0578 86.5,53.5C 87.7388,55.0072 87.4054,56.1739 85.5,57C 81.8484,57.4986 78.1817,57.6653 74.5,57.5C 74.5,56.1667 74.5,54.8333 74.5,53.5 Z"/></g>
</svg>

